<?xml version="1.0" encoding="UTF-8"?> <!-- Generator: Adobe Illustrator 21.1.0, SVG Export Plug-In . SVG Version: 6.00 Build 0) --> <svg xmlns="http://www.w3.org/2000/svg" xmlns:xlink="http://www.w3.org/1999/xlink" id="Layer_1" x="0px" y="0px" viewBox="0 0 100.8 100.8" style="enable-background:new 0 0 100.8 100.8;" xml:space="preserve"> <style type="text/css"> .st0{fill:#F42800;} </style> <g> <path class="st0" d="M62.8,73.3c-0.8-0.3-1.6,0-2,0.8C59,78.3,54.9,81,50.3,81c-4.4,0-8.4-2.6-10.3-6.5c-0.4-0.7-1.2-1.1-2-0.7 c-0.7,0.4-1.1,1.2-0.7,2c2.4,5,7.5,8.2,13,8.2c5.8,0,11-3.4,13.2-8.8C63.9,74.5,63.5,73.7,62.8,73.3z"></path> <path class="st0" d="M43,59.1c0.6-0.6,0.5-1.6-0.1-2.1c-0.6-0.6-1.6-0.5-2.1,0.1c-1.8,2.1-3.7,3.1-5.5,3c-2.8-0.1-4.8-2.8-4.8-2.8 c-0.5-0.7-1.4-0.8-2.1-0.3s-0.8,1.4-0.3,2.1c0.1,0.2,2.8,3.9,7.1,4.1c0.1,0,0.3,0,0.4,0C38.1,63.1,40.6,61.8,43,59.1z"></path> <path class="st0" d="M69.8,57.1c-1.8,2.1-3.7,3.1-5.5,3c-2.8-0.1-4.8-2.8-4.8-2.8c-0.5-0.7-1.4-0.8-2.1-0.3 c-0.7,0.5-0.8,1.4-0.3,2.1c0.1,0.2,2.8,3.9,7.1,4.1c0.1,0,0.3,0,0.4,0c2.6,0,5.1-1.3,7.5-4c0.6-0.6,0.5-1.6-0.1-2.1 C71.3,56.5,70.3,56.5,69.8,57.1z"></path> <path class="st0" d="M85.4,44.2c-0.2-4.1-1.5-15-8.4-21.4c-3.8-3.5-8.6-5.1-14.4-4.7c-3.4,0.2-6.4,0.5-9.1,0.7 c-16.9,1.5-22,1.9-27.2-12.6c-0.2-0.6-0.9-1-1.6-1c-0.2,0-0.4,0.1-0.6,0.2c-0.4,0.2-10.8,5.8-13.8,17c-1.8,6.8-0.5,14.2,3.8,21.9 c-6.5,1-11.5,6.6-11.5,13.4c0,7.5,6.1,13.6,13.5,13.6h1c5.3,13.7,18.1,23.5,33,23.5S77.8,85,83,71.2h0.8c7.5,0,13.5-6.1,13.5-13.6 C97.3,50.7,92.1,45,85.4,44.2z M13.2,23.2c2-7.6,8.1-12.4,10.9-14.3C30,23.8,37.2,23.2,53.7,21.8c2.7-0.2,5.8-0.5,9.1-0.7 c4.9-0.3,9,1,12.1,3.9c6.2,5.8,7.2,16.2,7.4,19.7C69.2,47.6,64.6,33.6,64.4,33c-0.2-0.5-0.6-1-1.2-1c-0.6-0.1-1.1,0.2-1.5,0.6 c-8.4,11.9-22,14.4-27.5,14.9c-7.2,0.7-13.9-0.6-16.8-3.3C13,36.7,11.5,29.6,13.2,23.2z M5.7,57.6c0-5.3,4-9.7,9.1-10.4v10.4 c0,3.7,0.5,7.2,1.5,10.6C10.4,68.2,5.7,63.5,5.7,57.6z M50.1,91.8c-17.8,0-32.3-15.3-32.3-34.2v-9.7c3.1,1.7,7.6,2.7,12.7,2.7 c1.3,0,2.7-0.1,4.1-0.2c5.6-0.5,18.9-3,28-14C64.9,41,70.8,50,82.4,47.7v10C82.4,76.5,67.9,91.8,50.1,91.8z M84,68.2 c0.9-3.3,1.5-6.9,1.5-10.5V47.2c5,0.8,8.9,5.2,8.9,10.4C94.3,63.4,89.7,68.1,84,68.2z"></path> </g> </svg> 